<?xml version="1.0" encoding="UTF-8" standalone="no"?>
<!DOCTYPE svg PUBLIC "-//W3C//DTD SVG 1.0//EN" "http://www.w3.org/TR/2001/PR-SVG-20010719/DTD/svg10.dtd">
<svg width="40cm" height="11cm" viewBox="-616 -103 799 204" xmlns="http://www.w3.org/2000/svg" xmlns:xlink="http://www.w3.org/1999/xlink">
  <g>
    <ellipse style="fill: #ffffff" cx="-553.675" cy="-0.102082" rx="60.5" ry="40.5"/>
    <ellipse style="fill: none; fill-opacity:0; stroke-width: 2; stroke: #000000" cx="-553.675" cy="-0.102082" rx="60.5" ry="40.5"/>
  </g>
  <text font-size="22.5774" style="fill: #000000;text-anchor:middle;font-family:sans-serif;font-style:normal;font-weight:normal" x="-550.321" y="7.42595">
    <tspan x="-550.321" y="7.42595">Sensor</tspan>
  </text>
  <g>
    <ellipse style="fill: #ffffff" cx="-387.705" cy="0.395923" rx="60.5" ry="40.5"/>
    <ellipse style="fill: none; fill-opacity:0; stroke-width: 2; stroke: #000000" cx="-387.705" cy="0.395923" rx="60.5" ry="40.5"/>
  </g>
  <text font-size="22.5774" style="fill: #000000;text-anchor:middle;font-family:sans-serif;font-style:normal;font-weight:normal" x="-386.071" y="7.38299">
    <tspan x="-386.071" y="7.38299">Scaler</tspan>
  </text>
  <g>
    <ellipse style="fill: #ffffff" cx="-226.919" cy="-0.177826" rx="60.5" ry="40.5"/>
    <ellipse style="fill: none; fill-opacity:0; stroke-width: 2; stroke: #000000" cx="-226.919" cy="-0.177826" rx="60.5" ry="40.5"/>
  </g>
  <text font-size="22.5774" style="fill: #000000;text-anchor:middle;font-family:sans-serif;font-style:normal;font-weight:normal" x="-225.284" y="6.80924">
    <tspan x="-225.284" y="6.80924">Xbar</tspan>
  </text>
  <g>
    <ellipse style="fill: #ffffff" cx="-38.9456" cy="-59.9122" rx="60.5" ry="40.5"/>
    <ellipse style="fill: none; fill-opacity:0; stroke-width: 2; stroke: #000000" cx="-38.9456" cy="-59.9122" rx="60.5" ry="40.5"/>
  </g>
  <text font-size="22.5774" style="fill: #000000;text-anchor:middle;font-family:sans-serif;font-style:normal;font-weight:normal" x="-37.311" y="-52.9251">
    <tspan x="-37.311" y="-52.9251">Append</tspan>
  </text>
  <g>
    <ellipse style="fill: #ffffff" cx="-38.4003" cy="59.4963" rx="60.5" ry="40.5"/>
    <ellipse style="fill: none; fill-opacity:0; stroke-width: 2; stroke: #000000" cx="-38.4003" cy="59.4963" rx="60.5" ry="40.5"/>
  </g>
  <text font-size="22.5774" style="fill: #000000;text-anchor:middle;font-family:sans-serif;font-style:normal;font-weight:normal" x="-36.7658" y="66.4834">
    <tspan x="-36.7658" y="66.4834">Crop</tspan>
  </text>
  <g>
    <ellipse style="fill: #ffffff" cx="121.358" cy="59.4963" rx="60.5" ry="40.5"/>
    <ellipse style="fill: none; fill-opacity:0; stroke-width: 2; stroke: #000000" cx="121.358" cy="59.4963" rx="60.5" ry="40.5"/>
  </g>
  <text font-size="22.5774" style="fill: #000000;text-anchor:middle;font-family:sans-serif;font-style:normal;font-weight:normal" x="122.993" y="66.4834">
    <tspan x="122.993" y="66.4834">SDI2</tspan>
  </text>
  <g>
    <ellipse style="fill: #ffffff" cx="121.36" cy="-61.0027" rx="60.5" ry="40.5"/>
    <ellipse style="fill: none; fill-opacity:0; stroke-width: 2; stroke: #000000" cx="121.36" cy="-61.0027" rx="60.5" ry="40.5"/>
  </g>
  <text font-size="22.5774" style="fill: #000000;text-anchor:middle;font-family:sans-serif;font-style:normal;font-weight:normal" x="122.995" y="-54.0156">
    <tspan x="122.995" y="-54.0156">SDI1</tspan>
  </text>
</svg>
